# Made in Blockbench 4.12.6
mtllib df7g_floor_b.mtl

o df7g_floor_b
v 1 1 1
v 1 1 0
v 1 0.625 1
v 1 0.625 0
v -0.1875 1 1
v -0.1875 1 0
v -0.1875 0.625 1
v -0.1875 0.625 0
vt 0.5625 0.6875
vt 0.5625 0.78125
vt 0.3125 0.78125
vt 0.3125 0.6875
vt 0.5625 0.578125
vt 0.5625 0.671875
vt 0.3125 0.671875
vt 0.3125 0.578125
vt 0.296875 0.75
vt 0.296875 1
vt 0 1
vt 0 0.75
vt 0.296875 0.484375
vt 0.296875 0.734375
vt 0 0.734375
vt 0 0.484375
vt 0.609375 0.90625
vt 0.609375 1
vt 0.3125 1
vt 0.3125 0.90625
vt 0.609375 0.796875
vt 0.609375 0.890625
vt 0.3125 0.890625
vt 0.3125 0.796875
vn 1 0 0
vn -1 0 0
vn 0 1 0
vn 0 -1 0
vn 0 0 1
vn 0 0 -1
usemtl m_857da3a0-921f-0856-ab8b-7d059536f35c
f 4/1/1 2/2/1 1/3/1 3/4/1
f 7/5/2 5/6/2 6/7/2 8/8/2
f 1/9/3 2/10/3 6/11/3 5/12/3
f 4/13/4 3/14/4 7/15/4 8/16/4
f 3/17/5 1/18/5 5/19/5 7/20/5
f 8/21/6 6/22/6 2/23/6 4/24/6