# Made in Blockbench 4.12.6
mtllib df7g_floor_d.mtl

o df7g_floor_d
v 1.0625 2 0.6250000000000001
v 1.0625 2 1.0625
v 1.0625 1.9375 0.625
v 1.0625 1.9375 1.0625
v 1.125 2 0.6250000000000001
v 1.125 2 1.0625
v 1.125 1.9375 0.625
v 1.125 1.9375 1.0625
v 1.0625 2.183368125 0.3469962500000001
v 1.0625 1.997089375 0.6284325000000001
v 1.0625 2.13125 0.3125000000000001
v 1.0625 1.94497125 0.59393625
v 1.125 2.183368125 0.3469962500000001
v 1.125 1.997089375 0.6284325000000001
v 1.125 2.13125 0.3125000000000001
v 1.125 1.94497125 0.59393625
v 1.0625 2.1875 0.06250000000000011
v 1.0625 2.1875 0.3125000000000001
v 1.0625 2.125 0.06250000000000011
v 1.0625 2.125 0.3125000000000001
v 1.125 2.1875 0.06250000000000011
v 1.125 2.1875 0.3125000000000001
v 1.125 2.125 0.06250000000000011
v 1.125 2.125 0.3125000000000001
v 1.0625 1.9375 0.625
v 1.0625 1.9375 0.6875000000000001
v 1.0625 1.03125 0.625
v 1.0625 1.03125 0.6875
v 1.125 1.9375 0.625
v 1.125 1.9375 0.6875000000000001
v 1.125 1.03125 0.625
v 1.125 1.03125 0.6875
v 1.0625 1.5625 0.6875
v 1.0625 1.5625 1.0625
v 1.0625 1.5 0.6875
v 1.0625 1.5 1.0625
v 1.125 1.5625 0.6875
v 1.125 1.5625 1.0625
v 1.125 1.5 0.6875
v 1.125 1.5 1.0625
v 1.0625 1.5625 0.0625
v 1.0625 1.5625 0.625
v 1.0625 1.5 0.0625
v 1.0625 1.5 0.625
v 1.125 1.5625 0.0625
v 1.125 1.5625 0.625
v 1.125 1.5 0.0625
v 1.125 1.5 0.625
v 1.0625 1.03125 0.71875
v 1.125 1.03125 0.71875
v 1.0625 1 0.71875
v 1.125 1 0.71875
v 1.0625 1.03125 0.59375
v 1.125 1.03125 0.59375
v 1.0625 1 0.59375
v 1.125 1 0.59375
v 1.1875 1 1
v 1.1875 1 0
v 1.1875 0.625 0.9999999999999999
v 1.1875 0.6250000000000001 -1.1102230246251565e-16
v 0 1 1
v 0 1.0000000000000002 0
v 0 0.6250000000000001 0.9999999999999999
v 0 0.6250000000000002 -1.1102230246251565e-16
v 1.0625 2 1.0625
v 1.0625 2 1.6875
v 1.0625 1.9375 1.0625
v 1.0625 1.9375 1.6875
v 1.125 2 1.0625
v 1.125 2 1.6875
v 1.125 1.9375 1.0625
v 1.125 1.9375 1.6875
v 1.0625 1.5625 1.0625
v 1.0625 1.5625 1.6875
v 1.0625 1.5 1.0625
v 1.0625 1.4999999999999998 1.6875
v 1.125 1.5625 1.0625
v 1.125 1.5624999999999998 1.6875
v 1.125 1.5 1.0625
v 1.125 1.4999999999999998 1.6875
vt 0.609375 0.421875
vt 0.609375 0.4375
vt 0.5 0.4375
vt 0.5 0.421875
vt 0.6875 0.765625
vt 0.6875 0.78125
vt 0.578125 0.78125
vt 0.578125 0.765625
vt 0.59375 0.640625
vt 0.59375 0.75
vt 0.578125 0.75
vt 0.578125 0.640625
vt 0.015625 0.296875
vt 0.015625 0.40625
vt 0 0.40625
vt 0 0.296875
vt 0.546875 0.359375
vt 0.546875 0.375
vt 0.53125 0.375
vt 0.53125 0.359375
vt 0.578125 0.359375
vt 0.578125 0.375
vt 0.5625 0.375
vt 0.5625 0.359375
vt 0.5 0.328125
vt 0.515625 0.328125
vt 0.515625 0.40625
vt 0.5 0.40625
vt 0.609375 0.390625
vt 0.609375 0.40625
vt 0.53125 0.40625
vt 0.53125 0.390625
vt 0.09375 0.39756562500000003
vt 0.09375 0.31319062499999994
vt 0.109375 0.31319062499999994
vt 0.109375 0.39756562500000003
vt 0.140625 0.32048750000000004
vt 0.140625 0.4048625
vt 0.125 0.4048625
vt 0.125 0.32048750000000004
vt 0.671875 0.453125
vt 0.671875 0.46875
vt 0.65625 0.46875
vt 0.65625 0.453125
vt 0.578125 0.328125
vt 0.578125 0.34375
vt 0.5625 0.34375
vt 0.5625 0.328125
vt 0.671875 0.734375
vt 0.671875 0.75
vt 0.609375 0.75
vt 0.609375 0.734375
vt 0.671875 0.703125
vt 0.671875 0.71875
vt 0.609375 0.71875
vt 0.609375 0.703125
vt 0.640625 0.9375
vt 0.640625 1
vt 0.625 1
vt 0.625 0.9375
vt 0.640625 0.859375
vt 0.640625 0.921875
vt 0.625 0.921875
vt 0.625 0.859375
vt 0.640625 0.421875
vt 0.640625 0.4375
vt 0.625 0.4375
vt 0.625 0.421875
vt 0.609375 0.359375
vt 0.609375 0.375
vt 0.59375 0.375
vt 0.59375 0.359375
vt 0.109375 0.39756562500000003
vt 0.109375 0.40625
vt 0.09375 0.40625
vt 0.09375 0.39756562500000003
vt 0.664036875 0.40235203124999996
vt 0.656275625 0.40625
vt 0.656275625 0.39062515625000005
vt 0.640625 0.33598890625
vt 0.636726875 0.34375
vt 0.625 0.33598890625
vt 0.6014965625 0.34375
vt 0.5938159375 0.33014296875000004
vt 0.6014965625 0.327951875
vt 0.6758678125 0.4375
vt 0.6600696875 0.4375
vt 0.66226078125 0.42981953125000005
vt 0.140625 0.3125
vt 0.140625 0.32048750000000004
vt 0.125 0.32048750000000004
vt 0.125 0.3125
vt 0.328125 0.328125
vt 0.328125 0.5625
vt 0.3125 0.5625
vt 0.3125 0.328125
vt 0.359375 0.328125
vt 0.359375 0.5625
vt 0.34375 0.5625
vt 0.34375 0.328125
vt 0.640625 0.390625
vt 0.640625 0.40625
vt 0.625 0.40625
vt 0.625 0.390625
vt 0.640625 0.359375
vt 0.640625 0.375
vt 0.625 0.375
vt 0.625 0.359375
vt 0.390625 0.328125
vt 0.390625 0.5625
vt 0.375 0.5625
vt 0.375 0.328125
vt 0.421875 0.328125
vt 0.421875 0.5625
vt 0.40625 0.5625
vt 0.40625 0.328125
vt 0.671875 0.609375
vt 0.671875 0.625
vt 0.578125 0.625
vt 0.578125 0.609375
vt 0.671875 0.578125
vt 0.671875 0.59375
vt 0.578125 0.59375
vt 0.578125 0.578125
vt 0.046875 0.3125
vt 0.046875 0.40625
vt 0.03125 0.40625
vt 0.03125 0.3125
vt 0.078125 0.3125
vt 0.078125 0.40625
vt 0.0625 0.40625
vt 0.0625 0.3125
vt 0.65625 0.671875
vt 0.65625 0.6875
vt 0.640625 0.6875
vt 0.640625 0.671875
vt 0.65625 0.640625
vt 0.65625 0.65625
vt 0.640625 0.65625
vt 0.640625 0.640625
vt 0.640625 0.453125
vt 0.640625 0.46875
vt 0.5 0.46875
vt 0.5 0.453125
vt 0.140625 0.421875
vt 0.140625 0.4375
vt 0 0.4375
vt 0 0.421875
vt 0.25 0.328125
vt 0.25 0.46875
vt 0.234375 0.46875
vt 0.234375 0.328125
vt 0.28125 0.328125
vt 0.28125 0.46875
vt 0.265625 0.46875
vt 0.265625 0.328125
vt 0.65625 0.546875
vt 0.65625 0.5625
vt 0.640625 0.5625
vt 0.640625 0.546875
vt 0.65625 0.515625
vt 0.65625 0.53125
vt 0.640625 0.53125
vt 0.640625 0.515625
vt 0.671875 0.984375
vt 0.671875 1
vt 0.65625 1
vt 0.65625 0.984375
vt 0.671875 0.953125
vt 0.671875 0.96875
vt 0.65625 0.96875
vt 0.65625 0.953125
vt 0.625 0.6875
vt 0.609375 0.6875
vt 0.609375 0.65625
vt 0.625 0.65625
vt 0.609375 0.53125
vt 0.625 0.53125
vt 0.625 0.5625
vt 0.609375 0.5625
vt 0.65625 0.828125
vt 0.65625 0.84375
vt 0.625 0.84375
vt 0.625 0.828125
vt 0.65625 0.796875
vt 0.65625 0.8125
vt 0.625 0.8125
vt 0.625 0.796875
vt 0.5625 0.6875
vt 0.5625 0.78125
vt 0.3125 0.78125
vt 0.3125 0.6875
vt 0.5625 0.578125
vt 0.5625 0.671875
vt 0.3125 0.671875
vt 0.3125 0.578125
vt 0 1
vt 0 0.75
vt 0.296875 0.75
vt 0.296875 1
vt 0 0.734375
vt 0 0.484375
vt 0.296875 0.484375
vt 0.296875 0.734375
vt 0.609375 0.90625
vt 0.609375 1
vt 0.3125 1
vt 0.3125 0.90625
vt 0.609375 0.796875
vt 0.609375 0.890625
vt 0.3125 0.890625
vt 0.3125 0.796875
vt 0.59375 0.546875
vt 0.59375 0.5625
vt 0.4375 0.5625
vt 0.4375 0.546875
vt 0.59375 0.515625
vt 0.59375 0.53125
vt 0.4375 0.53125
vt 0.4375 0.515625
vt 0.453125 0.34375
vt 0.453125 0.5
vt 0.4375 0.5
vt 0.4375 0.34375
vt 0.484375 0.34375
vt 0.484375 0.5
vt 0.46875 0.5
vt 0.46875 0.34375
vt 0.671875 0.921875
vt 0.671875 0.9375
vt 0.65625 0.9375
vt 0.65625 0.921875
vt 0.671875 0.890625
vt 0.671875 0.90625
vt 0.65625 0.90625
vt 0.65625 0.890625
vt 0.65625 0.484375
vt 0.65625 0.5
vt 0.5 0.5
vt 0.5 0.484375
vt 0.15625 0.453125
vt 0.15625 0.46875
vt 0 0.46875
vt 0 0.453125
vt 0.1875 0.3125
vt 0.1875 0.46875
vt 0.171875 0.46875
vt 0.171875 0.3125
vt 0.21875 0.3125
vt 0.21875 0.46875
vt 0.203125 0.46875
vt 0.203125 0.3125
vt 0.671875 0.859375
vt 0.671875 0.875
vt 0.65625 0.875
vt 0.65625 0.859375
vt 0.546875 0.328125
vt 0.546875 0.34375
vt 0.53125 0.34375
vt 0.53125 0.328125
vn -1 1.2246467991473532e-16 1.4997597826618576e-32
vn 1 -1.2246467991473532e-16 -1.4997597826618576e-32
vn 1.2246467991473532e-16 1 1.2246467991473532e-16
vn -1.2246467991473532e-16 -1 -1.2246467991473532e-16
vn 0 1.2246467991473532e-16 -1
vn 0 -1.2246467991473532e-16 1
vn -1 1.2246467991473532e-16 1.4997597826618576e-32
vn 1 -1.2246467991473532e-16 -1.4997597826618576e-32
vn 1.0212153360927936e-16 0.8338856042442632 0.5519373144064279
vn -1.0212153360927936e-16 -0.8338856042442632 -0.5519373144064279
vn 6.759280747540066e-17 0.5519371587176108 -0.8338857072925109
vn -6.759280747540066e-17 -0.5519371587176108 0.8338857072925109
vn -1 1.2246467991473532e-16 1.4997597826618576e-32
vn 1 -1.2246467991473532e-16 -1.4997597826618576e-32
vn 1.2246467991473532e-16 1 1.2246467991473532e-16
vn -1.2246467991473532e-16 -1 -1.2246467991473532e-16
vn 0 1.2246467991473532e-16 -1
vn 0 -1.2246467991473532e-16 1
vn 1.2159554163553063e-16 0.992902947365642 0.11892744474099134
vn 1 -1.2246467991473532e-16 -1.4997597826618576e-32
vn -1 1.2246467991473532e-16 1.4997597826618576e-32
vn 1 -1.2246467991473532e-16 -1.4997597826618576e-32
vn -1 1.2246467991473532e-16 1.4997597826618576e-32
vn -1.1906921183827635e-16 -0.9722738990636074 -0.23384495974822805
vn -1 1.2246467991473532e-16 1.4997597826618576e-32
vn 1 -1.2246467991473532e-16 -1.4997597826618576e-32
vn 1.2246467991473532e-16 1 1.2246467991473532e-16
vn -1.2246467991473532e-16 -1 -1.2246467991473532e-16
vn 0 1.2246467991473532e-16 -1
vn 0 -1.2246467991473532e-16 1
vn -1 1.2246467991473532e-16 1.4997597826618576e-32
vn 1 -1.2246467991473532e-16 -1.4997597826618576e-32
vn 1.2246467991473532e-16 1 1.2246467991473532e-16
vn -1.2246467991473532e-16 -1 -1.2246467991473532e-16
vn 0 1.2246467991473532e-16 -1
vn 0 -1.2246467991473532e-16 1
vn -1 1.2246467991473532e-16 1.4997597826618576e-32
vn 1 -1.2246467991473532e-16 -1.4997597826618576e-32
vn 1.2246467991473532e-16 1 1.2246467991473532e-16
vn -1.2246467991473532e-16 -1 -1.2246467991473532e-16
vn 0 1.2246467991473532e-16 -1
vn 0 -1.2246467991473532e-16 1
vn 0 -1.2246467991473532e-16 1
vn 0 1.2246467991473532e-16 -1
vn 1.2246467991473532e-16 1 1.2246467991473532e-16
vn -1.2246467991473532e-16 -1 -1.2246467991473532e-16
vn -1 1.2246467991473532e-16 1.4997597826618576e-32
vn 1 -1.2246467991473532e-16 -1.4997597826618576e-32
vn 1 -1.2246467991473532e-16 -1.4997597826618576e-32
vn -1 1.2246467991473532e-16 1.4997597826618576e-32
vn 1.2246467991473532e-16 1 1.2246467991473532e-16
vn -1.2246467991473532e-16 -1 -1.2246467991473532e-16
vn 0 -1.2246467991473532e-16 1
vn 0 1.2246467991473532e-16 -1
vn -1 1.2246467991473532e-16 1.4997597826618576e-32
vn 1 -1.2246467991473532e-16 -1.4997597826618576e-32
vn 1.2246467991473532e-16 1 1.2246467991473532e-16
vn -1.2246467991473532e-16 -1 -1.2246467991473532e-16
vn 0 1.2246467991473532e-16 -1
vn 0 -1.2246467991473532e-16 1
vn -1 1.2246467991473532e-16 1.4997597826618576e-32
vn 1 -1.2246467991473532e-16 -1.4997597826618576e-32
vn 1.2246467991473532e-16 1 1.2246467991473532e-16
vn -1.2246467991473532e-16 -1 -1.2246467991473532e-16
vn 0 1.2246467991473532e-16 -1
vn 0 -1.2246467991473532e-16 1
usemtl m_505485f6-6a8b-5631-b1e6-2ce3959b629e
f 4/1/1 2/2/1 1/3/1 3/4/1
f 7/5/2 5/6/2 6/7/2 8/8/2
f 1/9/3 2/10/3 6/11/3 5/12/3
f 4/13/4 3/14/4 7/15/4 8/16/4
f 3/17/5 1/18/5 5/19/5 7/20/5
f 8/21/6 6/22/6 2/23/6 4/24/6
f 12/25/7 10/26/7 9/27/7 11/28/7
f 15/29/8 13/30/8 14/31/8 16/32/8
f 9/33/9 10/34/9 14/35/9 13/36/9
f 12/37/10 11/38/10 15/39/10 16/40/10
f 11/41/11 9/42/11 13/43/11 15/44/11
f 16/45/12 14/46/12 10/47/12 12/48/12
f 20/49/13 18/50/13 17/51/13 19/52/13
f 23/53/14 21/54/14 22/55/14 24/56/14
f 17/57/15 18/58/15 22/59/15 21/60/15
f 20/61/16 19/62/16 23/63/16 24/64/16
f 19/65/17 17/66/17 21/67/17 23/68/17
f 24/69/18 22/70/18 18/71/18 20/72/18
f 13/73/19 22/74/19 18/75/19 9/76/19
f 22/77/20 13/78/20 15/79/20
f 9/80/21 18/81/21 11/82/21
f 5/83/22 7/84/22 16/85/22
f 1/86/23 12/87/23 3/88/23
f 3/89/24 12/90/24 16/91/24 7/92/24
f 28/93/25 26/94/25 25/95/25 27/96/25
f 31/97/26 29/98/26 30/99/26 32/100/26
f 25/101/27 26/102/27 30/103/27 29/104/27
f 28/105/28 27/106/28 31/107/28 32/108/28
f 27/109/29 25/110/29 29/111/29 31/112/29
f 32/113/30 30/114/30 26/115/30 28/116/30
f 36/117/31 34/118/31 33/119/31 35/120/31
f 39/121/32 37/122/32 38/123/32 40/124/32
f 33/125/33 34/126/33 38/127/33 37/128/33
f 36/129/34 35/130/34 39/131/34 40/132/34
f 35/133/35 33/134/35 37/135/35 39/136/35
f 40/137/36 38/138/36 34/139/36 36/140/36
f 44/141/37 42/142/37 41/143/37 43/144/37
f 47/145/38 45/146/38 46/147/38 48/148/38
f 41/149/39 42/150/39 46/151/39 45/152/39
f 44/153/40 43/154/40 47/155/40 48/156/40
f 43/157/41 41/158/41 45/159/41 47/160/41
f 48/161/42 46/162/42 42/163/42 44/164/42
f 52/165/43 50/166/43 49/167/43 51/168/43
f 55/169/44 53/170/44 54/171/44 56/172/44
f 49/173/45 50/174/45 54/175/45 53/176/45
f 52/177/46 51/178/46 55/179/46 56/180/46
f 51/181/47 49/182/47 53/183/47 55/184/47
f 56/185/48 54/186/48 50/187/48 52/188/48
f 60/189/49 58/190/49 57/191/49 59/192/49
f 63/193/50 61/194/50 62/195/50 64/196/50
f 57/197/51 58/198/51 62/199/51 61/200/51
f 60/201/52 59/202/52 63/203/52 64/204/52
f 59/205/53 57/206/53 61/207/53 63/208/53
f 64/209/54 62/210/54 58/211/54 60/212/54
f 68/213/55 66/214/55 65/215/55 67/216/55
f 71/217/56 69/218/56 70/219/56 72/220/56
f 65/221/57 66/222/57 70/223/57 69/224/57
f 68/225/58 67/226/58 71/227/58 72/228/58
f 67/229/59 65/230/59 69/231/59 71/232/59
f 72/233/60 70/234/60 66/235/60 68/236/60
f 76/237/61 74/238/61 73/239/61 75/240/61
f 79/241/62 77/242/62 78/243/62 80/244/62
f 73/245/63 74/246/63 78/247/63 77/248/63
f 76/249/64 75/250/64 79/251/64 80/252/64
f 75/253/65 73/254/65 77/255/65 79/256/65
f 80/257/66 78/258/66 74/259/66 76/260/66