# Made in Blockbench 4.12.6
mtllib df7g_enclosure_a.mtl

o df7g_enclosure_a
v -0.5160631249999998 0.25 0.9937500000000001
v -0.31683937499999987 0.53125 0.9937500000000001
v 0.16233562500000004 0.71875 0.99375
v 0.808941875 0.71875 0.9937499999999999
v 1.4312500000000001 0.25 0.9937499999999999
v 1.2833225000000001 0.53125 0.9937499999999999
v 1.43125 0.25 0.056249999999999856
v 1.2831374999999998 0.53125 0.056249999999999856
v 0.810178125 0.71875 0.05624999999999991
v 0.16498937499999994 0.71875 0.05625000000000002
v -0.3141856250000001 0.53125 0.05625000000000008
v -0.5148275000000002 0.25 0.05625000000000008
v -0.4499999999999999 0.25 1
v -0.4500000000000001 0.25 0.06250000000000006
v -0.4499999999999999 -2 1
v -0.4500000000000001 -2 0.06250000000000006
v -0.5125 0.25 1
v -0.5125000000000002 0.25 0.06250000000000006
v -0.5125 -2 1
v -0.5125000000000002 -2 0.06250000000000006
v 1.425 0.25 0.9999999999999998
v 1.4249999999999998 0.25 0.06249999999999983
v 1.425 -2 0.9999999999999998
v 1.4249999999999998 -2 0.06249999999999983
v 1.3625 0.25 0.9999999999999998
v 1.3624999999999998 0.25 0.06249999999999983
v 1.3625 -2 0.9999999999999998
v 1.3624999999999998 -2 0.06249999999999983
v -0.31126250000000016 0.53125 0.05625000000000008
v 0.16169687499999996 0.71875 0.05625000000000002
v 0.16293312500000007 0.71875 0.99375
v -0.31144749999999993 0.53125 0.9937500000000001
v -0.45937500000000014 0.25 0.05625000000000008
v -0.4593749999999999 0.25 0.9937500000000001
v -0.45312500000000017 0.25 0.06250000000000006
v -0.45312499999999994 0.25 1
v -0.45312500000000017 -2 0.06250000000000006
v -0.45312499999999994 -2 1
v 0.8068856249999999 0.71875 0.05624999999999991
v 1.286060625 0.53125 0.056249999999999856
v 1.288714375 0.53125 0.9937499999999999
v 0.8095393750000001 0.71875 0.9937499999999999
v 1.4242024999999998 0.25 0.056249999999999856
v 1.4254381250000001 0.25 0.9937499999999999
v 1.421875 0.25 0.9999999999999998
v 1.4218749999999998 0.25 0.06249999999999983
v 1.421875 -2 0.9999999999999998
v 1.4218749999999998 -2 0.06249999999999983
vt 0.4540515625 0.796875
vt 0.39493125 0.7734375
vt 0.3764171875 0.73828125
vt 0.6196765625 0.73828125
vt 0.6196765625 0.73828125
vt 0.594596875 0.7734375
vt 0.5347 0.796875
vt 0.4540515625 0.796875
vt 0.3828125 0.7265625
vt 0.3828125 0.6833765625
vt 0.5 0.6832875
vt 0.5 0.7263703125000001
vt 0.520271796875 0.882806953125
vt 0.58459078125 0.8827946875
vt 0.58492203125 0.9999825
vt 0.520603046875 0.999994765625
vt 0.439623359375 0.882806953125
vt 0.520271796875 0.882806953125
vt 0.520603046875 0.999994453125
vt 0.439777265625 0.999994453125
vt 0.36959921875 0.7109375
vt 0.12633984375 0.7109375
vt 0.12633984375 0.59375
vt 0.36975390625 0.59375
vt 0.61975390625 0.80859375
vt 0.60126328125 0.84375
vt 0.541965625 0.8671875
vt 0.46113984375 0.8671875
vt 0.46113984375 0.8671875
vt 0.40124296875 0.84375
vt 0.37633984375 0.80859375
vt 0.61975390625 0.80859375
vt 0.1171875 0.71875
vt 0.1171875 1
vt 0 1
vt 0 0.71875
vt 0.2421875 0.71875
vt 0.2421875 1
vt 0.125 1
vt 0.125 0.71875
vt 0.1875 0.5859375
vt 0.1875 0.46875
vt 0.1953125 0.46875
vt 0.1953125 0.5859375
vt 0.203125 0.5859375
vt 0.203125 0.46875
vt 0.2109375 0.46875
vt 0.2109375 0.5859375
vt 0.1328125 0.3046875
vt 0.1328125 0.5859375
vt 0.125 0.5859375
vt 0.125 0.3046875
vt 0.1484375 0.3046875
vt 0.1484375 0.5859375
vt 0.140625 0.5859375
vt 0.140625 0.3046875
vt 0.1171875 0.4296875
vt 0.1171875 0.7109375
vt 0 0.7109375
vt 0 0.4296875
vt 0.21875 0.5859375
vt 0.21875 0.46875
vt 0.2265625 0.46875
vt 0.2265625 0.5859375
vt 0.234375 0.5859375
vt 0.234375 0.46875
vt 0.2421875 0.46875
vt 0.2421875 0.5859375
vt 0.1640625 0.3046875
vt 0.1640625 0.5859375
vt 0.15625 0.5859375
vt 0.15625 0.3046875
vt 0.1796875 0.3046875
vt 0.1796875 0.5859375
vt 0.171875 0.5859375
vt 0.171875 0.3046875
vt 0.5 0.6832875
vt 0.3828125 0.6833765625
vt 0.3828125 0.7265625
vt 0.5 0.7263703125000001
vt 0.58492203125 0.9999825
vt 0.58459078125 0.8827946875
vt 0.520271796875 0.882806953125
vt 0.520603046875 0.999994765625
vt 0.125 1
vt 0.2421875 1
vt 0.2421875 0.71875
vt 0.125 0.71875
vn -1.2246467991473532e-16 0 -1
vn -1.2246467991473532e-16 0 -1
vn -0.8140764595654317 0.5807567190775821 -0.0010729527737071173
vn -0.36439365895050774 0.9312444348139176 -0.001031476983935849
vn 0 1 0
vn 0 -1 0
vn 1.2246467991473532e-16 0 1
vn 1.2246467991473532e-16 0 1
vn 1 0 -1.2246467991473532e-16
vn -1 0 1.2246467991473532e-16
vn 0 1 0
vn 0 -1 0
vn 1.2246467991473532e-16 0 1
vn -1.2246467991473532e-16 0 -1
vn -1 0 1.2246467991473532e-16
vn 0 1 0
vn 0 -1 0
vn 1.2246467991473532e-16 0 1
vn -1.2246467991473532e-16 0 -1
vn 0.8975739293808455 0.4408623841983557 -0.0011830024389240283
vn 0.3643936589505077 0.9312444348139176 -0.0010314769839359524
vn 1 0 -1.2246467991473532e-16
usemtl m_ef76d27a-0ad6-f487-068a-980f0e0b08ee
f 9/1/1 8/2/1 7/3/1 12/4/1
f 12/5/2 11/6/2 10/7/2 9/8/2
f 11/9/3 12/10/3 1/11/3 2/12/3
f 10/13/4 11/14/4 2/15/4 3/16/4
f 9/17/5 10/18/5 3/19/5 4/20/5
f 12/21/6 7/22/6 5/23/6 1/24/6
f 5/25/7 6/26/7 4/27/7 3/28/7
f 3/29/8 2/30/8 1/31/8 5/32/8
f 16/33/9 14/34/9 13/35/9 15/36/9
f 19/37/10 17/38/10 18/39/10 20/40/10
f 13/41/11 14/42/11 18/43/11 17/44/11
f 16/45/12 15/46/12 19/47/12 20/48/12
f 15/49/13 13/50/13 17/51/13 19/52/13
f 20/53/14 18/54/14 14/55/14 16/56/14
f 27/57/15 25/58/15 26/59/15 28/60/15
f 21/61/16 22/62/16 26/63/16 25/64/16
f 24/65/17 23/66/17 27/67/17 28/68/17
f 23/69/18 21/70/18 25/71/18 27/72/18
f 28/73/19 26/74/19 22/75/19 24/76/19
f 44/77/20 43/78/20 40/79/20 41/80/20
f 41/81/21 40/82/21 39/83/21 42/84/21
f 46/85/22 45/86/22 47/87/22 48/88/22