# Made in Blockbench 4.12.6
mtllib df4d_right_board_e.mtl

o df4d_right_broad_e
v -0.0011718749999999334 2 -5.551115123125783e-17
v -0.0011718749999999334 1 -5.551115123125783e-17
v -2.001171875 2 2.220446049250313e-16
v -2.001171875 1 2.220446049250313e-16
v -1.796484375 1.9375 1.1102230246251565e-16
v -0.7511718749999999 1.9375 0
v -1.796484375 1.3125 1.1102230246251565e-16
v -0.7511718749999999 1.3125 0
v -1.796484375 1.3125 0.1250000000000001
v -0.7511718749999999 1.3125 0.125
v -0.0011718749999999334 1 0.12499999999999989
v -2.001171875 1 0.12500000000000022
v -0.7511718749999999 1.9375 0.125
v -0.0011718749999999334 2 0.12499999999999989
v -1.796484375 1.9375 0.1250000000000001
v -2.001171875 2 0.12500000000000022
v -2.001171875 1 0.12500000000000022
v -2.001171875 1 2.220446049250313e-16
v -2.001171875 0 0.12500000000000022
v -2.001171875 0 2.220446049250313e-16
v -0.0011718749999999334 0 0.12499999999999989
v -0.0011718749999999334 0 -5.551115123125783e-17
v -1.013999375 2.125 0.12583250000000012
v -1.013999375 2.125 0.0008325000000001248
v -1.013999375 2 0.12583250000000012
v -1.013999375 2 0.0008325000000001248
v -0.0011718749999999334 2.125 0.12499999999999989
v -0.0011718749999999334 2.125 -5.551115123125783e-17
v -2.001171875 2.125 0.12500000000000022
v -2.001171875 2.125 2.220446049250313e-16
v -2.001171875 2 0.12500000000000022
v -2.001171875 2 2.220446049250313e-16
v -1.0011718749999998 2.125 0.1250000000000001
v -1.0011718749999998 2.125 1.1102230246251565e-16
v -1.0011718749999998 2 0.1250000000000001
v -1.0011718749999998 2 1.1102230246251565e-16
vt 0.0255859375 0.9921875
vt 0.0255859375 0.9140625
vt 0 0.875
vt 0 1
vt 0.15625 0.9921875
vt 0.0255859375 0.9921875
vt 0 1
vt 0.25 1
vt 0.15625 0.9140625
vt 0.15625 0.9921875
vt 0.25 1
vt 0.25 0.875
vt 0.0255859375 0.9140625
vt 0.15625 0.9140625
vt 0.25 0.875
vt 0 0.875
vt 0.28125 0.5625
vt 0.28125 0.6875
vt 0.296875 0.6875
vt 0.296875 0.5625
vt 0.3046875 0.5625
vt 0.3046875 0.6875
vt 0.3203125 0.6875
vt 0.3203125 0.5625
vt 0 0.71875
vt 0 0.734375
vt 0.25 0.734375
vt 0.25 0.71875
vt 0.2578125 0.71875
vt 0.2578125 0.734375
vt 0.5078125 0.734375
vt 0.5078125 0.71875
vt 0.0255859375 0.859375
vt 0.0255859375 0.78125
vt 0 0.7421875
vt 0 0.8671875
vt 0.15625 0.859375
vt 0.0255859375 0.859375
vt 0 0.8671875
vt 0.25 0.8671875
vt 0.15625 0.78125
vt 0.15625 0.859375
vt 0.25 0.8671875
vt 0.25 0.7421875
vt 0.0255859375 0.78125
vt 0.15625 0.78125
vt 0.25 0.7421875
vt 0 0.7421875
vt 0 0.6875
vt 0.1328125 0.6875
vt 0.1328125 0.671875
vt 0 0.671875
vt 0.171875 0.6640625
vt 0.171875 0.5859375
vt 0.15625 0.5859375
vt 0.15625 0.6640625
vt 0.1796875 0.5859375
vt 0.1796875 0.6640625
vt 0.1953125 0.6640625
vt 0.1953125 0.5859375
vt 0.2734375 0.671875
vt 0.140625 0.671875
vt 0.140625 0.6875
vt 0.2734375 0.6875
vt 0.328125 0.6875
vt 0.34375 0.6875
vt 0.34375 0.5625
vt 0.328125 0.5625
vt 0 0.6640625
vt 0.015625 0.6640625
vt 0.015625 0.5390625
vt 0 0.5390625
vt 0 0.7109375
vt 0.25 0.7109375
vt 0.25 0.6953125
vt 0 0.6953125
vt 0.2578125 0.7109375
vt 0.5078125 0.7109375
vt 0.5078125 0.6953125
vt 0.2578125 0.6953125
vt 0.2578125 1
vt 0.5078125 1
vt 0.5078125 0.875
vt 0.2578125 0.875
vt 0.2578125 0.8671875
vt 0.5078125 0.8671875
vt 0.5078125 0.7421875
vt 0.2578125 0.7421875
vt 0.0390625 0.9765625
vt 0.0546875 0.9765625
vt 0.0546875 0.9609375
vt 0.0390625 0.9609375
vt 0.0390625 0.953125
vt 0.0546875 0.953125
vt 0.0546875 0.9375
vt 0.0390625 0.9375
vt 0.0234375 0.6640625
vt 0.1484375 0.6640625
vt 0.1484375 0.6484375
vt 0.0234375 0.6484375
vt 0.3515625 0.6875
vt 0.4765625 0.6875
vt 0.4765625 0.671875
vt 0.3515625 0.671875
vt 0.3515625 0.6640625
vt 0.4765625 0.6640625
vt 0.4765625 0.6484375
vt 0.3515625 0.6484375
vt 0.0234375 0.640625
vt 0.1484375 0.640625
vt 0.1484375 0.625
vt 0.0234375 0.625
vt 0.0625 0.9765625
vt 0.078125 0.9765625
vt 0.078125 0.9609375
vt 0.0625 0.9609375
vt 0.0625 0.953125
vt 0.078125 0.953125
vt 0.078125 0.9375
vt 0.0625 0.9375
vt 0.3515625 0.640625
vt 0.4765625 0.640625
vt 0.4765625 0.625
vt 0.3515625 0.625
vt 0.0234375 0.6171875
vt 0.1484375 0.6171875
vt 0.1484375 0.6015625
vt 0.0234375 0.6015625
vt 0.3515625 0.6171875
vt 0.4765625 0.6171875
vt 0.4765625 0.6015625
vt 0.3515625 0.6015625
vt 0.0234375 0.59375
vt 0.1484375 0.59375
vt 0.1484375 0.578125
vt 0.0234375 0.578125
vn -1.2246467991473532e-16 0 -1
vn -1.2246467991473532e-16 0 -1
vn -1.2246467991473532e-16 0 -1
vn -1.2246467991473532e-16 0 -1
vn 1 0 -1.2246467991473532e-16
vn -1 0 1.2246467991473532e-16
vn 0 1 0
vn 0 -1 0
vn -1.2246467991473532e-16 0 -1
vn -1.2246467991473532e-16 0 -1
vn -1.2246467991473532e-16 0 -1
vn -1.2246467991473532e-16 0 -1
vn 0 1 0
vn -1 0 1.2246467991473532e-16
vn 1 0 -1.2246467991473532e-16
vn 0 -1 0
vn -1 0 1.2246467991473532e-16
vn 1 0 -1.2246467991473532e-16
vn 0 1 0
vn 0 -1 0
vn 1.2246467991473532e-16 0 1
vn -1.2246467991473532e-16 0 -1
vn -1 0 1.2246467991473532e-16
vn 1 0 -1.2246467991473532e-16
vn 0 1 0
vn 0 -1 0
vn 0.0008219560771964442 0 0.9999996621940466
vn -0.0008219560771964442 0 -0.9999996621940466
vn -1 0 1.2246467991473532e-16
vn 1 0 -1.2246467991473532e-16
vn 0 1 0
vn 0 -1 0
vn 1.2246467991473532e-16 0 1
vn -1.2246467991473532e-16 0 -1
usemtl m_8e0e3b3f-ee22-4bd9-a145-451354cde456
f 5/1/1 7/2/1 4/3/1 3/4/1
f 6/5/2 5/6/2 3/7/2 1/8/2
f 8/9/3 6/10/3 1/11/3 2/12/3
f 7/13/4 8/14/4 2/15/4 4/16/4
f 2/17/5 1/18/5 14/19/5 11/20/5
f 12/21/6 16/22/6 3/23/6 4/24/6
f 14/25/7 1/26/7 3/27/7 16/28/7
f 2/29/8 11/30/8 12/31/8 4/32/8
f 15/33/9 9/34/9 12/35/9 16/36/9
f 13/37/10 15/38/10 16/39/10 14/40/10
f 10/41/11 13/42/11 14/43/11 11/44/11
f 9/45/12 10/46/12 11/47/12 12/48/12
f 8/49/13 7/50/13 9/51/13 10/52/13
f 6/53/14 8/54/14 10/55/14 13/56/14
f 7/57/15 5/58/15 15/59/15 9/60/15
f 5/61/16 6/62/16 13/63/16 15/64/16
f 17/65/17 18/66/17 20/67/17 19/68/17
f 2/69/18 11/70/18 21/71/18 22/72/18
f 2/73/19 18/74/19 17/75/19 11/76/19
f 21/77/20 19/78/20 20/79/20 22/80/20
f 11/81/21 17/82/21 19/83/21 21/84/21
f 18/85/22 2/86/22 22/87/22 20/88/22
f 23/89/23 24/90/23 26/91/23 25/92/23
f 28/93/24 27/94/24 14/95/24 1/96/24
f 28/97/25 24/98/25 23/99/25 27/100/25
f 14/101/26 25/102/26 26/103/26 1/104/26
f 27/105/27 23/106/27 25/107/27 14/108/27
f 24/109/28 28/110/28 1/111/28 26/112/28
f 29/113/29 30/114/29 32/115/29 31/116/29
f 34/117/30 33/118/30 35/119/30 36/120/30
f 34/121/31 30/122/31 29/123/31 33/124/31
f 35/125/32 31/126/32 32/127/32 36/128/32
f 33/129/33 29/130/33 31/131/33 35/132/33
f 30/133/34 34/134/34 36/135/34 32/136/34