# Made in Blockbench 4.12.6
mtllib df4d_floor_a.mtl

o df4d_floor_a
v -0.9999999999999999 1 1.1102230246251565e-16
v 1.1102230246251565e-16 1 -1.1102230246251565e-16
v -0.9999999999999999 0.5 1.1102230246251565e-16
v 1.1102230246251565e-16 0.5 -1.1102230246251565e-16
v -1.1102230246251565e-16 1 -1
v -1 1 -0.9999999999999999
v -1.1102230246251565e-16 0.5 -1
v -1 0.5 -0.9999999999999999
vt 0.5 1
vt 1 1
vt 1 0.75
vt 0.5 0.75
vt 0.5 0.75
vt 1 0.75
vt 1 0.5
vt 0.5 0.5
vt 0.5 0.5
vt 1 0.5
vt 1 0.25
vt 0.5 0.25
vt 0.5 0.25
vt 1 0.25
vt 1 0
vt 0.5 0
vt 0.5 0.5
vt 0 0.5
vt 0 1
vt 0.5 1
vt 0.5 0.5
vt 0 0.5
vt 0 0
vt 0.5 0
vn 1 0 -2.220446049250313e-16
vn 2.220446049250313e-16 0 1
vn -1 0 2.220446049250313e-16
vn -2.220446049250313e-16 0 -1
vn 0 1 0
vn 0 -1 0
usemtl m_4e0e14c0-3a1b-a1a7-2371-67acb080962c
f 4/4/1 7/3/1 5/2/1 2/1/1
f 3/8/2 4/7/2 2/6/2 1/5/2
f 8/12/3 3/11/3 1/10/3 6/9/3
f 7/16/4 8/15/4 6/14/4 5/13/4
f 6/20/5 1/19/5 2/18/5 5/17/5
f 7/24/6 4/23/6 3/22/6 8/21/6