# Made in Blockbench 4.12.6
mtllib df4d_right_board_b.mtl

o df4d_right_broad_b
v -1.0124999999999997 2.125 0.1250000000000001
v -1.0124999999999997 2.125 1.1102230246251565e-16
v -1.0124999999999997 2 0.1250000000000001
v -1.0124999999999997 2 1.1102230246251565e-16
v 0.0003275000000001471 2.125 0.12416749999999988
v 0.0003275000000001471 2.125 -0.0008325000000000693
v -1.9996725 2.125 0.12416750000000021
v -1.9996725 2.125 -0.0008324999999998473
v -1.0124999999999997 2.125 0.1250000000000001
v -1.0124999999999997 2.125 1.1102230246251565e-16
v -1.0124999999999997 2 0.1250000000000001
v -1.0124999999999997 2 1.1102230246251565e-16
v -1.9996725 2 -0.0008324999999998473
v -1.9996725 1 -0.0008324999999998473
v 0.0003275000000001471 2 -0.0008325000000000693
v 0.0003275000000001471 1 -0.0008325000000000693
v -0.01685999999999993 1.9375 -0.0008325000000000693
v -1.0621725 1.9375 -0.0008324999999999583
v -0.01685999999999993 1.3125 -0.0008325000000000693
v -1.0621725 1.3125 -0.0008324999999999583
v -0.01685999999999993 1.3125 0.12416749999999988
v -1.0621725 1.3125 0.1241675000000001
v -1.9996725 1 0.12416750000000021
v 0.0003275000000001471 1 0.12416749999999988
v -1.0621725 1.9375 0.1241675000000001
v -1.9996725 2 0.12416750000000021
v -0.01685999999999993 1.9375 0.12416749999999988
v 0.0003275000000001471 2 0.12416749999999988
v -1.9996725 0 0.12416750000000021
v -1.9996725 0 -0.0008324999999998473
v 0.0003275000000001471 0 0.12416749999999988
v 0.0003275000000001471 0 -0.0008325000000000693
v -1.9996725 2 0.12416750000000021
v -1.9996725 2 -0.0008324999999998473
v -1.9996725 1 0.12416750000000021
v -1.9996725 1 -0.0008324999999998473
vt 0.1328125 0.9765625
vt 0.1484375 0.9765625
vt 0.1484375 0.9609375
vt 0.1328125 0.9609375
vt 0.1328125 0.953125
vt 0.1484375 0.953125
vt 0.1484375 0.9375
vt 0.1328125 0.9375
vt 0.28125 0.6875
vt 0.40625 0.6875
vt 0.40625 0.671875
vt 0.28125 0.671875
vt 0 0.6640625
vt 0.125 0.6640625
vt 0.125 0.6484375
vt 0 0.6484375
vt 0.1328125 0.6640625
vt 0.2578125 0.6640625
vt 0.2578125 0.6484375
vt 0.1328125 0.6484375
vt 0.265625 0.6640625
vt 0.390625 0.6640625
vt 0.390625 0.6484375
vt 0.265625 0.6484375
vt 0.15625 0.9765625
vt 0.171875 0.9765625
vt 0.171875 0.9609375
vt 0.15625 0.9609375
vt 0.15625 0.953125
vt 0.171875 0.953125
vt 0.171875 0.9375
vt 0.15625 0.9375
vt 0 0.640625
vt 0.125 0.640625
vt 0.125 0.625
vt 0 0.625
vt 0.1328125 0.640625
vt 0.2578125 0.640625
vt 0.2578125 0.625
vt 0.1328125 0.625
vt 0.265625 0.640625
vt 0.390625 0.640625
vt 0.390625 0.625
vt 0.265625 0.625
vt 0 0.6171875
vt 0.125 0.6171875
vt 0.125 0.6015625
vt 0 0.6015625
vt 0.25 0.875
vt 0.2478515625 0.9140625
vt 0.2478515625 0.9921875
vt 0.25 1
vt 0.25 1
vt 0.2478515625 0.9921875
vt 0.1171875 0.9921875
vt 0 1
vt 0 1
vt 0.1171875 0.9921875
vt 0.1171875 0.9140625
vt 0 0.875
vt 0 0.875
vt 0.1171875 0.9140625
vt 0.2478515625 0.9140625
vt 0.25 0.875
vt 0.1328125 0.6171875
vt 0.1484375 0.6171875
vt 0.1484375 0.4921875
vt 0.1328125 0.4921875
vt 0.15625 0.6171875
vt 0.171875 0.6171875
vt 0.171875 0.4921875
vt 0.15625 0.4921875
vt 0 0.734375
vt 0.25 0.734375
vt 0.25 0.71875
vt 0 0.71875
vt 0.2578125 0.734375
vt 0.5078125 0.734375
vt 0.5078125 0.71875
vt 0.2578125 0.71875
vt 0.25 0.7421875
vt 0.2478515625 0.78125
vt 0.2478515625 0.859375
vt 0.25 0.8671875
vt 0.25 0.8671875
vt 0.2478515625 0.859375
vt 0.1171875 0.859375
vt 0 0.8671875
vt 0 0.8671875
vt 0.1171875 0.859375
vt 0.1171875 0.78125
vt 0 0.7421875
vt 0 0.7421875
vt 0.1171875 0.78125
vt 0.2478515625 0.78125
vt 0.25 0.7421875
vt 0 0.671875
vt 0 0.6875
vt 0.1328125 0.6875
vt 0.1328125 0.671875
vt 0.2421875 0.5390625
vt 0.2265625 0.5390625
vt 0.2265625 0.6171875
vt 0.2421875 0.6171875
vt 0.25 0.6171875
vt 0.265625 0.6171875
vt 0.265625 0.5390625
vt 0.25 0.5390625
vt 0.2734375 0.6875
vt 0.2734375 0.671875
vt 0.140625 0.671875
vt 0.140625 0.6875
vt 0.1796875 0.6171875
vt 0.1953125 0.6171875
vt 0.1953125 0.4921875
vt 0.1796875 0.4921875
vt 0.203125 0.6171875
vt 0.21875 0.6171875
vt 0.21875 0.4921875
vt 0.203125 0.4921875
vt 0 0.7109375
vt 0.25 0.7109375
vt 0.25 0.6953125
vt 0 0.6953125
vt 0.2578125 0.7109375
vt 0.5078125 0.7109375
vt 0.5078125 0.6953125
vt 0.2578125 0.6953125
vt 0.2578125 1
vt 0.5078125 1
vt 0.5078125 0.875
vt 0.2578125 0.875
vt 0.2578125 0.8671875
vt 0.5078125 0.8671875
vt 0.5078125 0.7421875
vt 0.2578125 0.7421875
vn -1 0 1.2246467991473532e-16
vn 1 0 -1.2246467991473532e-16
vn 0 1 0
vn 0 -1 0
vn 0.0008219560771964442 0 0.9999996621940466
vn -0.0008219560771964442 0 -0.9999996621940466
vn -1 0 1.2246467991473532e-16
vn 1 0 -1.2246467991473532e-16
vn 0 1 0
vn 0 -1 0
vn -0.0008433173573711093 0 0.9999996444078542
vn 0.0008433173573711093 0 -0.9999996444078542
vn -1.2246467991473532e-16 0 -1
vn -1.2246467991473532e-16 0 -1
vn -1.2246467991473532e-16 0 -1
vn -1.2246467991473532e-16 0 -1
vn -1 0 1.2246467991473532e-16
vn 1 0 -1.2246467991473532e-16
vn 0 1 0
vn 0 -1 0
vn -1.2246467991473532e-16 0 -1
vn -1.2246467991473532e-16 0 -1
vn -1.2246467991473532e-16 0 -1
vn -1.2246467991473532e-16 0 -1
vn 0 1 0
vn 1 0 -1.2246467991473532e-16
vn -1 0 1.2246467991473532e-16
vn 0 -1 0
vn -1 0 1.2246467991473532e-16
vn 1 0 -1.2246467991473532e-16
vn 0 1 0
vn 0 -1 0
vn 1.2246467991473532e-16 0 1
vn -1.2246467991473532e-16 0 -1
usemtl m_ff7b61a0-c0b9-e0d1-0fd8-289e4610503c
f 1/1/1 2/2/1 4/3/1 3/4/1
f 6/5/2 5/6/2 28/7/2 15/8/2
f 6/9/3 2/10/3 1/11/3 5/12/3
f 28/13/4 3/14/4 4/15/4 15/16/4
f 5/17/5 1/18/5 3/19/5 28/20/5
f 2/21/6 6/22/6 15/23/6 4/24/6
f 7/25/7 8/26/7 34/27/7 33/28/7
f 10/29/8 9/30/8 11/31/8 12/32/8
f 10/33/9 8/34/9 7/35/9 9/36/9
f 11/37/10 33/38/10 34/39/10 12/40/10
f 9/41/11 7/42/11 33/43/11 11/44/11
f 8/45/12 10/46/12 12/47/12 34/48/12
f 16/49/13 19/50/13 17/51/13 15/52/13
f 15/53/14 17/54/14 18/55/14 13/56/14
f 13/57/15 18/58/15 20/59/15 14/60/15
f 14/61/16 20/62/16 19/63/16 16/64/16
f 26/65/17 13/66/17 14/67/17 23/68/17
f 15/69/18 28/70/18 24/71/18 16/72/18
f 15/73/19 13/74/19 26/75/19 28/76/19
f 24/77/20 23/78/20 14/79/20 16/80/20
f 24/81/21 21/82/21 27/83/21 28/84/21
f 28/85/22 27/86/22 25/87/22 26/88/22
f 26/89/23 25/90/23 22/91/23 23/92/23
f 23/93/24 22/94/24 21/95/24 24/96/24
f 21/97/25 19/98/25 20/99/25 22/100/25
f 22/101/26 20/102/26 18/103/26 25/104/26
f 27/105/27 17/106/27 19/107/27 21/108/27
f 25/109/28 18/110/28 17/111/28 27/112/28
f 35/113/29 36/114/29 30/115/29 29/116/29
f 16/117/30 24/118/30 31/119/30 32/120/30
f 16/121/31 36/122/31 35/123/31 24/124/31
f 31/125/32 29/126/32 30/127/32 32/128/32
f 24/129/33 35/130/33 29/131/33 31/132/33
f 36/133/34 16/134/34 32/135/34 30/136/34