# Made in Blockbench 4.12.6
mtllib df4d_right_board_c.mtl

o df4d_right_broad_c
v 5.551115123125783e-17 1 1
v 5.551115123125783e-17 1 0.8750000000000001
v 5.551115123125783e-17 0 1
v 5.551115123125783e-17 0 0.8750000000000001
v 1 1 0.9999999999999999
v 1 1 0.875
v 1 0 0.9999999999999999
v 1 0 0.875
v 5.551115123125783e-17 2.125 1
v 5.551115123125783e-17 2.125 0.8750000000000001
v 5.551115123125783e-17 2 1
v 5.551115123125783e-17 2 0.8750000000000001
v 1 2.125 0.9999999999999999
v 1 2.125 0.875
v 1 2 0.9999999999999999
v 1 2 0.875
v 5.551115123125783e-17 2 1
v 5.551115123125783e-17 2 0.8750000000000001
v 5.551115123125783e-17 1 1
v 5.551115123125783e-17 1 0.8750000000000001
v 1 2 0.9999999999999999
v 1 2 0.875
v 1 1 0.9999999999999999
v 1 1 0.875
vt 0 0.46875
vt 0.03125 0.46875
vt 0.03125 0.21875
vt 0 0.21875
vt 0.53125 1
vt 0.5625 1
vt 0.5625 0.75
vt 0.53125 0.75
vt 0.046875 0.46875
vt 0.296875 0.46875
vt 0.296875 0.4375
vt 0.046875 0.4375
vt 0.53125 0.734375
vt 0.78125 0.734375
vt 0.78125 0.703125
vt 0.53125 0.703125
vt 0 1
vt 0.25 1
vt 0.25 0.75
vt 0 0.75
vt 0 0.734375
vt 0.25 0.734375
vt 0.25 0.484375
vt 0 0.484375
vt 0.359375 0.421875
vt 0.390625 0.421875
vt 0.390625 0.390625
vt 0.359375 0.390625
vt 0.40625 0.421875
vt 0.4375 0.421875
vt 0.4375 0.390625
vt 0.40625 0.390625
vt 0.3125 0.46875
vt 0.5625 0.46875
vt 0.5625 0.4375
vt 0.3125 0.4375
vt 0.53125 0.6875
vt 0.78125 0.6875
vt 0.78125 0.65625
vt 0.53125 0.65625
vt 0.53125 0.640625
vt 0.78125 0.640625
vt 0.78125 0.609375
vt 0.53125 0.609375
vt 0.53125 0.59375
vt 0.78125 0.59375
vt 0.78125 0.5625
vt 0.53125 0.5625
vt 0.578125 1
vt 0.609375 1
vt 0.609375 0.75
vt 0.578125 0.75
vt 0.046875 0.421875
vt 0.078125 0.421875
vt 0.078125 0.171875
vt 0.046875 0.171875
vt 0.53125 0.546875
vt 0.78125 0.546875
vt 0.78125 0.515625
vt 0.53125 0.515625
vt 0.09375 0.421875
vt 0.34375 0.421875
vt 0.34375 0.390625
vt 0.09375 0.390625
vt 0.265625 1
vt 0.515625 1
vt 0.515625 0.75
vt 0.265625 0.75
vt 0.265625 0.734375
vt 0.515625 0.734375
vt 0.515625 0.484375
vt 0.265625 0.484375
vn -1 0 1.2246467991473532e-16
vn 1 0 -1.2246467991473532e-16
vn 0 1 0
vn 0 -1 0
vn 1.2246467991473532e-16 0 1
vn -1.2246467991473532e-16 0 -1
vn -1 0 1.2246467991473532e-16
vn 1 0 -1.2246467991473532e-16
vn 0 1 0
vn 0 -1 0
vn 1.2246467991473532e-16 0 1
vn -1.2246467991473532e-16 0 -1
vn -1 0 1.2246467991473532e-16
vn 1 0 -1.2246467991473532e-16
vn 0 1 0
vn 0 -1 0
vn 1.2246467991473532e-16 0 1
vn -1.2246467991473532e-16 0 -1
usemtl m_7bae9c0e-6852-0cb5-f1d0-b402bd18f169
f 1/1/1 2/2/1 4/3/1 3/4/1
f 6/5/2 5/6/2 7/7/2 8/8/2
f 6/9/3 2/10/3 1/11/3 5/12/3
f 7/13/4 3/14/4 4/15/4 8/16/4
f 5/17/5 1/18/5 3/19/5 7/20/5
f 2/21/6 6/22/6 8/23/6 4/24/6
f 9/25/7 10/26/7 12/27/7 11/28/7
f 14/29/8 13/30/8 15/31/8 16/32/8
f 14/33/9 10/34/9 9/35/9 13/36/9
f 15/37/10 11/38/10 12/39/10 16/40/10
f 13/41/11 9/42/11 11/43/11 15/44/11
f 10/45/12 14/46/12 16/47/12 12/48/12
f 17/49/13 18/50/13 20/51/13 19/52/13
f 22/53/14 21/54/14 23/55/14 24/56/14
f 22/57/15 18/58/15 17/59/15 21/60/15
f 23/61/16 19/62/16 20/63/16 24/64/16
f 21/65/17 17/66/17 19/67/17 23/68/17
f 18/69/18 22/70/18 24/71/18 20/72/18