# Made in Blockbench 4.12.6
mtllib df4d_roof_d.mtl

o df4d_roof_d
v 0.7343750000000001 0.9203125 1.0046875
v 0.7968750000000001 0.9203125 1.0015625
v 0.9218750000000001 0.625 1.0046874999999997
v 0.9843750000000001 0.625 1.0015625
v 0.7343749999999999 0.9203125 0.004687499999999956
v 0.7968749999999999 0.9203125 0.0015624999999999667
v 0.9218749999999999 0.625 0.0046874999999999
v 0.9843749999999999 0.625 0.0015624999999999112
v -0.016457499999999903 0.9984375 1.0034525
v 0.7022925000000001 0.9984375 1.0034524999999999
v -0.016457499999999903 0.4984375 1.0034525
v 0.9929175000000001 0.4921875 1.0034524999999999
v -0.016457500000000125 0.9984375 0.003452500000000136
v 0.7022924999999999 0.9984375 0.0034524999999999695
v -0.016457500000000125 0.4984375 0.003452500000000136
v 0.9929174999999999 0.4921875 0.003452499999999914
v 0.9218750000000001 0.625 1.0046874999999997
v 0.9843750000000001 0.625 1.0015625
v 1.0459787500000002 0.12209125 0.9955249999999999
v 1.1389706250000002 0.12229125 1.0033474999999998
v 0.9218749999999999 0.625 0.0046874999999999
v 0.9843749999999999 0.625 0.0015624999999999112
v 1.0459787499999997 0.12209125 -0.004475000000000118
v 1.1389706249999998 0.12229125 0.0033474999999998367
v 1.1389706249999998 0.12229125 0.0033474999999998367
vt 0.609375 0.429124375
vt 0.59375 0.4375
vt 0.59375 0.35004734375
vt 0.609375 0.34167171875
vt 0.60499265625 0.453125
vt 0.69244546875 0.453125
vt 0.68406984375 0.46875
vt 0.59661703125 0.46875
vt 0.800390625 0.734375
vt 0.801171875 0.75
vt 0.551171875 0.75
vt 0.550390625 0.734375
vt 0.78125 0.765625
vt 0.78125 0.859375
vt 0.53125 0.859375
vt 0.53125 0.765625
vt 0.78125 0.6875
vt 0.53125 0.6875
vt 0.53125 0.59375
vt 0.78125 0.59375
vt 0.800390625 0.71875
vt 0.550390625 0.71875
vt 0.551171875 0.703125
vt 0.801171875 0.703125
vt 0.448046875 0.84375
vt 0.268359375 0.84375
vt 0.268359375 0.71875
vt 0.520703125 0.7171875
vt 0.515625 0.5625
vt 0.515625 0.6875
vt 0.33828125 0.6875
vt 0.265625 0.5609375
vt 0 0.546875
vt 0.25 0.546875
vt 0.25 0.734375
vt 0 0.734375
vt 0.25 0.75
vt 0.25 1
vt 0 1
vt 0 0.75
vt 0.78125 0.875
vt 0.78125 1
vt 0.53125 1
vt 0.53125 0.875
vt 0.515625 1
vt 0.265625 1
vt 0.265625 0.859375
vt 0.515625 0.859375
vt 0.578125 0.459574375
vt 0.5696675 0.46416609374999995
vt 0.5625 0.33484515625
vt 0.578125 0.328125
vt 0.5715121875 0.49350109374999995
vt 0.70083296875 0.50066859375
vt 0.69624140625 0.515625
vt 0.56479203125 0.515625
vt 0.566796875 0.53125
vt 0.816796875 0.53125
vt 0.816015625 0.546875
vt 0.566015625 0.546875
vt 0.534178125 0.578125
vt 0.536134375 0.5625
vt 0.786134375 0.5625
vt 0.784178125 0.578125
vt 0.2527609375 0.40625
vt 0.2550515625 0.53125
vt 0.0050515625 0.53125
vt 0.0027609375 0.40625
vt 0.5353796875 0.53125
vt 0.2853796875 0.53125
vt 0.2849328125 0.40625
vt 0.5349328125 0.40625
vn 0.049912534778131415 0.031690498271829334 0.9982506955626452
vn -0.04991253477813231 -0.031690498271829896 -0.9982506955626452
vn 0 -1 0
vn -0.8442128152478039 -0.5360081366652724 1.8745290103434706e-16
vn 0.8442128152478039 0.5360081366652724 -1.8745290103434706e-16
vn 0 1 0
vn 2.220446049250313e-16 0 1
vn -2.220446049250313e-16 0 -1
vn 0 1 0
vn -0.006191831767343299 -0.9999808304259463 1.3748628385420012e-18
vn -1 0 2.220446049250313e-16
vn 0.8672530968348076 0.4978675185533155 -1.9256887125669476e-16
vn 0.04993675571566349 -0.00587297762814369 0.9987351143132867
vn -0.049936755715664374 0.005872977628143585 -0.9987351143132867
vn 0 1 0
vn 0.002150720559614187 -0.9999976871978629 -4.775558969636744e-19
vn -0.9708754461020236 -0.23958478281434548 2.1557765486113735e-16
vn 0.9558238847993806 0.2939399619769663 -2.122355368781871e-16
usemtl m_ecf76546-fdb9-9e0e-cc61-e6c6b43cac9a
f 2/1/1 1/2/1 3/3/1 4/4/1
f 7/5/2 5/6/2 6/7/2 8/8/2
f 4/9/3 3/10/3 7/11/3 8/12/3
f 3/13/4 1/14/4 5/15/4 7/16/4
f 6/17/5 2/18/5 4/19/5 8/20/5
f 2/21/6 6/22/6 5/23/6 1/24/6
f 10/25/7 9/26/7 11/27/7 12/28/7
f 15/29/8 13/30/8 14/31/8 16/32/8
f 13/33/9 9/34/9 10/35/9 14/36/9
f 12/37/10 11/38/10 15/39/10 16/40/10
f 11/41/11 9/42/11 13/43/11 15/44/11
f 14/45/12 10/46/12 12/47/12 16/48/12
f 18/49/13 17/50/13 19/51/13 20/52/13
f 23/53/14 21/54/14 22/55/14 24/56/14
f 21/57/15 17/58/15 18/59/15 22/60/15
f 20/61/16 19/62/16 23/63/16 24/64/16
f 19/65/17 17/66/17 21/67/17 23/68/17
f 22/69/18 18/70/18 20/71/18 24/72/18