# Made in Blockbench 4.12.6
mtllib df4d_left_board_f.mtl

o df4d_left_broad_f
v -1 2 0
v -1 1 0
v 1 2 0
v 1 1 0
v 0.9828125000000001 1.9375 0
v -0.0625 1.9375 0
v 0.9828125000000001 1.3125 0
v -0.0625 1.3125 0
v 0.9828125000000001 1.3125 0.125
v -0.0625 1.3125 0.125
v -1 1 0.125
v 1 1 0.125
v -0.0625 1.9375 0.125
v -1 2 0.125
v 0.9828125000000001 1.9375 0.125
v 1 2 0.125
v 1 0 0.125
v 1 0 0
v 0 1 0.125
v 0 1 0
v 0 0 0.125
v 0 0 0
v 0 1 0.125
v 0 1 0
v 0 0 0.125
v 0 0 0
v -3 0 0.125
v -3 0 0
v -1 2 0.125
v -1 2 0
v -1 1 0.125
v -1 1 0
v -3 2 0.125
v -3 2 0
v -3 1 0.125
v -3 1 0
v -0.9871725 2.125 0.1258325
v -0.9871725 2.125 0.0008325000000000138
v -0.9871725 2 0.1258325
v -0.9871725 2 0.0008325000000000138
v -1.9871725 2.125 0.1258325
v -1.9871725 2.125 0.0008325000000000138
v -1.9871725 2 0.1258325
v -1.9871725 2 0.0008325000000000138
v -1.9871725 2.125 0.1258325
v -1.9871725 2.125 0.0008325000000000138
v -1.9871725 2 0.1258325
v -1.9871725 2 0.0008325000000000138
v -3 2.125 0.125
v -3 2.125 0
v 0.012827499999999992 2.125 0.1258325
v 0.012827499999999992 2.125 0.0008325000000000138
v 0.012827499999999992 2 0.1258325
v 0.012827499999999992 2 0.0008325000000000138
v -0.9871725 2.125 0.1258325
v -0.9871725 2.125 0.0008325000000000138
v -0.9871725 2 0.1258325
v -0.9871725 2 0.0008325000000000138
v 1 2.125 0.125
v 1 2.125 0
v 0.012827499999999992 2.125 0.1258325
v 0.012827499999999992 2.125 0.0008325000000000138
v 0.012827499999999992 2 0.1258325
v 0.012827499999999992 2 0.0008325000000000138
vt 0 0.609375
vt 0.0021484375 0.6484375
vt 0.0021484375 0.7265625
vt 0 0.734375
vt 0 0.734375
vt 0.0021484375 0.7265625
vt 0.1328125 0.7265625
vt 0.25 0.734375
vt 0.25 0.734375
vt 0.1328125 0.7265625
vt 0.1328125 0.6484375
vt 0.25 0.609375
vt 0.25 0.609375
vt 0.1328125 0.6484375
vt 0.0021484375 0.6484375
vt 0 0.609375
vt 0.046875 0.46875
vt 0.03125 0.46875
vt 0.03125 0.34375
vt 0.046875 0.34375
vt 0.0703125 0.46875
vt 0.0546875 0.46875
vt 0.0546875 0.34375
vt 0.0703125 0.34375
vt 0.515625 0.5546875
vt 0.265625 0.5546875
vt 0.265625 0.5390625
vt 0.515625 0.5390625
vt 0.515625 0.53125
vt 0.265625 0.53125
vt 0.265625 0.515625
vt 0.515625 0.515625
vt 0.2578125 0.609375
vt 0.2599609375 0.6484375
vt 0.2599609375 0.7265625
vt 0.2578125 0.734375
vt 0.2578125 0.734375
vt 0.2599609375 0.7265625
vt 0.390625 0.7265625
vt 0.5078125 0.734375
vt 0.5078125 0.734375
vt 0.390625 0.7265625
vt 0.390625 0.6484375
vt 0.5078125 0.609375
vt 0.5078125 0.609375
vt 0.390625 0.6484375
vt 0.2599609375 0.6484375
vt 0.2578125 0.609375
vt 0.6484375 0.71875
vt 0.6484375 0.734375
vt 0.515625 0.734375
vt 0.515625 0.71875
vt 0.21875 0.3125
vt 0.234375 0.3125
vt 0.234375 0.390625
vt 0.21875 0.390625
vt 0.2578125 0.390625
vt 0.2421875 0.390625
vt 0.2421875 0.3125
vt 0.2578125 0.3125
vt 0.515625 0.7109375
vt 0.515625 0.6953125
vt 0.6484375 0.6953125
vt 0.6484375 0.7109375
vt 0.09375 0.34375
vt 0.09375 0.46875
vt 0.078125 0.46875
vt 0.078125 0.34375
vt 0.1171875 0.34375
vt 0.1171875 0.46875
vt 0.1015625 0.46875
vt 0.1015625 0.34375
vt 0.640625 0.6484375
vt 0.640625 0.6640625
vt 0.515625 0.6640625
vt 0.515625 0.6484375
vt 0.640625 0.625
vt 0.640625 0.640625
vt 0.515625 0.640625
vt 0.515625 0.625
vt 0.125 0.4765625
vt 0.125 0.6015625
vt 0 0.6015625
vt 0 0.4765625
vt 0.2578125 0.4765625
vt 0.2578125 0.6015625
vt 0.1328125 0.6015625
vt 0.1328125 0.4765625
vt 0.140625 0.34375
vt 0.140625 0.46875
vt 0.125 0.46875
vt 0.125 0.34375
vt 0.1640625 0.34375
vt 0.1640625 0.46875
vt 0.1484375 0.46875
vt 0.1484375 0.34375
vt 0.640625 0.5859375
vt 0.640625 0.6015625
vt 0.265625 0.6015625
vt 0.265625 0.5859375
vt 0.640625 0.5625
vt 0.640625 0.578125
vt 0.265625 0.578125
vt 0.265625 0.5625
vt 0.375 0.875
vt 0.375 1
vt 0 1
vt 0 0.875
vt 0.375 0.7421875
vt 0.375 0.8671875
vt 0 0.8671875
vt 0 0.7421875
vt 0.1875 0.34375
vt 0.1875 0.46875
vt 0.171875 0.46875
vt 0.171875 0.34375
vt 0.2109375 0.34375
vt 0.2109375 0.46875
vt 0.1953125 0.46875
vt 0.1953125 0.34375
vt 0.515625 0.4921875
vt 0.515625 0.5078125
vt 0.265625 0.5078125
vt 0.265625 0.4921875
vt 0.515625 0.46875
vt 0.515625 0.484375
vt 0.265625 0.484375
vt 0.265625 0.46875
vt 0.6328125 0.875
vt 0.6328125 1
vt 0.3828125 1
vt 0.3828125 0.875
vt 0.6328125 0.7421875
vt 0.6328125 0.8671875
vt 0.3828125 0.8671875
vt 0.3828125 0.7421875
vt 0.03125 0.6953125
vt 0.03125 0.7109375
vt 0.015625 0.7109375
vt 0.015625 0.6953125
vt 0.0546875 0.6953125
vt 0.0546875 0.7109375
vt 0.0390625 0.7109375
vt 0.0390625 0.6953125
vt 0.34375 0.4453125
vt 0.34375 0.4609375
vt 0.21875 0.4609375
vt 0.21875 0.4453125
vt 0.4765625 0.4453125
vt 0.4765625 0.4609375
vt 0.3515625 0.4609375
vt 0.3515625 0.4453125
vt 0.6796875 0.5390625
vt 0.6796875 0.5546875
vt 0.5546875 0.5546875
vt 0.5546875 0.5390625
vt 0.6796875 0.515625
vt 0.6796875 0.53125
vt 0.5546875 0.53125
vt 0.5546875 0.515625
vt 0.078125 0.6953125
vt 0.078125 0.7109375
vt 0.0625 0.7109375
vt 0.0625 0.6953125
vt 0.1015625 0.6953125
vt 0.1015625 0.7109375
vt 0.0859375 0.7109375
vt 0.0859375 0.6953125
vt 0.64338609375 0.671875
vt 0.64337328125 0.6875
vt 0.51677015625 0.6875
vt 0.51678296875 0.671875
vt 0.540963671875 0.5546875
vt 0.525338671875 0.5546875
vt 0.525442578125 0.4296875
vt 0.541067578125 0.4296875
vt 0.4765625 0.421875
vt 0.4765625 0.4375
vt 0.3515625 0.4375
vt 0.3515625 0.421875
vt 0.6796875 0.421875
vt 0.6796875 0.4375
vt 0.5546875 0.4375
vt 0.5546875 0.421875
vt 0.125 0.6953125
vt 0.125 0.7109375
vt 0.109375 0.7109375
vt 0.109375 0.6953125
vt 0.2890625 0.6953125
vt 0.2890625 0.7109375
vt 0.2734375 0.7109375
vt 0.2734375 0.6953125
vt 0.6796875 0.4921875
vt 0.6796875 0.5078125
vt 0.5546875 0.5078125
vt 0.5546875 0.4921875
vt 0.6796875 0.46875
vt 0.6796875 0.484375
vt 0.5546875 0.484375
vt 0.5546875 0.46875
vt 0.6796875 0.4453125
vt 0.6796875 0.4609375
vt 0.5546875 0.4609375
vt 0.5546875 0.4453125
vt 0.34375 0.421875
vt 0.34375 0.4375
vt 0.21875 0.4375
vt 0.21875 0.421875
vt 0.3125 0.6953125
vt 0.3125 0.7109375
vt 0.296875 0.7109375
vt 0.296875 0.6953125
vt 0.03125 0.671875
vt 0.03125 0.6875
vt 0.015625 0.6875
vt 0.015625 0.671875
vt 0.002005078125 0.34375
vt 0.017630078125 0.34375
vt 0.017526171875 0.46875
vt 0.001901171875 0.46875
vt 0.48517 0.4140625
vt 0.485183125 0.3984375
vt 0.60858 0.3984375
vt 0.608566875 0.4140625
vt 0.4765625 0.3984375
vt 0.4765625 0.4140625
vt 0.3515625 0.4140625
vt 0.3515625 0.3984375
vt 0.34375 0.3984375
vt 0.34375 0.4140625
vt 0.21875 0.4140625
vt 0.21875 0.3984375
vn 0 0 -1
vn 0 0 -1
vn 0 0 -1
vn 0 0 -1
vn -1 0 0
vn 1 0 0
vn 0 1 0
vn 0 -1 0
vn 0 0 -1
vn 0 0 -1
vn 0 0 -1
vn 0 0 -1
vn 0 1 0
vn 1 0 0
vn -1 0 0
vn 0 -1 0
vn 1 0 0
vn -1 0 0
vn 0 1 0
vn 0 -1 0
vn 0 0 1
vn 0 0 -1
vn 1 0 0
vn -1 0 0
vn 0 1 0
vn 0 -1 0
vn 0 0 1
vn 0 0 -1
vn 1 0 0
vn -1 0 0
vn 0 1 0
vn 0 -1 0
vn 0 0 1
vn 0 0 -1
vn 1 0 0
vn -1 0 0
vn 0 1 0
vn 0 -1 0
vn 0 0 1
vn 0 0 -1
vn 1 0 0
vn -1 0 0
vn 0 1 0
vn 0 -1 0
vn -0.0008219560771963217 0 0.9999996621940466
vn 0.0008219560771963217 0 -0.9999996621940466
vn 1 0 0
vn -1 0 0
vn 0 1 0
vn 0 -1 0
vn 0 0 1
vn 0 0 -1
vn 1 0 0
vn -1 0 0
vn 0 1 0
vn 0 -1 0
vn 0.0008433173573712318 0 0.9999996444078542
vn -0.0008433173573712318 0 -0.9999996444078542
usemtl m_1aeadafe-5fe3-7ad3-540d-4a6539770662
f 4/1/1 7/2/1 5/3/1 3/4/1
f 3/5/2 5/6/2 6/7/2 1/8/2
f 1/9/3 6/10/3 8/11/3 2/12/3
f 2/13/4 8/14/4 7/15/4 4/16/4
f 14/17/5 1/18/5 2/19/5 11/20/5
f 3/21/6 16/22/6 12/23/6 4/24/6
f 3/25/7 1/26/7 14/27/7 16/28/7
f 12/29/8 11/30/8 2/31/8 4/32/8
f 12/33/9 9/34/9 15/35/9 16/36/9
f 16/37/10 15/38/10 13/39/10 14/40/10
f 14/41/11 13/42/11 10/43/11 11/44/11
f 11/45/12 10/46/12 9/47/12 12/48/12
f 9/49/13 7/50/13 8/51/13 10/52/13
f 10/53/14 8/54/14 6/55/14 13/56/14
f 15/57/15 5/58/15 7/59/15 9/60/15
f 13/61/16 6/62/16 5/63/16 15/64/16
f 18/65/17 4/66/17 12/67/17 17/68/17
f 21/69/18 19/70/18 20/71/18 22/72/18
f 12/73/19 4/74/19 20/75/19 19/76/19
f 18/77/20 17/78/20 21/79/20 22/80/20
f 17/81/21 12/82/21 19/83/21 21/84/21
f 22/85/22 20/86/22 4/87/22 18/88/22
f 26/89/23 24/90/23 23/91/23 25/92/23
f 27/93/24 35/94/24 36/95/24 28/96/24
f 23/97/25 24/98/25 36/99/25 35/100/25
f 26/101/26 25/102/26 27/103/26 28/104/26
f 25/105/27 23/106/27 35/107/27 27/108/27
f 28/109/28 36/110/28 24/111/28 26/112/28
f 32/113/29 30/114/29 29/115/29 31/116/29
f 35/117/30 33/118/30 34/119/30 36/120/30
f 29/121/31 30/122/31 34/123/31 33/124/31
f 32/125/32 31/126/32 35/127/32 36/128/32
f 31/129/33 29/130/33 33/131/33 35/132/33
f 36/133/34 34/134/34 30/135/34 32/136/34
f 40/137/35 38/138/35 37/139/35 39/140/35
f 43/141/36 41/142/36 42/143/36 44/144/36
f 37/145/37 38/146/37 42/147/37 41/148/37
f 40/149/38 39/150/38 43/151/38 44/152/38
f 39/153/39 37/154/39 41/155/39 43/156/39
f 44/157/40 42/158/40 38/159/40 40/160/40
f 48/161/41 46/162/41 45/163/41 47/164/41
f 33/165/42 49/166/42 50/167/42 34/168/42
f 45/169/43 46/170/43 50/171/43 49/172/43
f 48/173/44 47/174/44 33/175/44 34/176/44
f 47/177/45 45/178/45 49/179/45 33/180/45
f 34/181/46 50/182/46 46/183/46 48/184/46
f 54/185/47 52/186/47 51/187/47 53/188/47
f 57/189/48 55/190/48 56/191/48 58/192/48
f 51/193/49 52/194/49 56/195/49 55/196/49
f 54/197/50 53/198/50 57/199/50 58/200/50
f 53/201/51 51/202/51 55/203/51 57/204/51
f 58/205/52 56/206/52 52/207/52 54/208/52
f 3/209/53 60/210/53 59/211/53 16/212/53
f 63/213/54 61/214/54 62/215/54 64/216/54
f 59/217/55 60/218/55 62/219/55 61/220/55
f 3/221/56 16/222/56 63/223/56 64/224/56
f 16/225/57 59/226/57 61/227/57 63/228/57
f 64/229/58 62/230/58 60/231/58 3/232/58